<?xml version="1.0" standalone="no"?>
<!DOCTYPE svg PUBLIC "-//W3C//DTD SVG 20010904//EN"
 "http://www.w3.org/TR/2001/REC-SVG-20010904/DTD/svg10.dtd">
<svg version="1.0" xmlns="http://www.w3.org/2000/svg"
 width="280.000000pt" height="280.000000pt" viewBox="0 0 280.000000 280.000000"
 preserveAspectRatio="xMidYMid meet">
<metadata>
Created by potrace 1.14, written by Peter Selinger 2001-2017
</metadata>
<g transform="translate(0.000000,280.000000) scale(0.100000,-0.100000)"
fill="#000000" stroke="none">
<path d="M1958 2633 c7 -3 16 -2 19 1 4 3 -2 6 -13 5 -11 0 -14 -3 -6 -6z"/>
<path d="M2073 2540 c-13 -5 -23 -14 -23 -19 0 -5 11 -4 25 2 14 7 25 15 25
20 0 8 2 8 -27 -3z"/>
<path d="M2191 2525 c-1 -13 19 -35 31 -35 4 0 8 5 8 10 0 6 -6 10 -14 10 -8
0 -17 6 -19 13 -3 6 -6 7 -6 2z"/>
<path d="M2004 2489 c-19 -22 -19 -22 3 -10 24 12 39 31 25 31 -5 0 -17 -10
-28 -21z"/>
<path d="M2266 2444 c-3 -9 -3 -20 0 -25 3 -5 2 -9 -3 -8 -4 1 -11 0 -15 -1
-14 -4 -28 -7 -40 -9 -9 -1 -9 -4 0 -13 14 -14 16 -44 3 -52 -4 -3 -6 6 -3 21
3 18 1 24 -7 19 -7 -4 -11 0 -11 11 0 15 -2 16 -11 3 -9 -13 -10 -13 -6 0 2 8
9 15 15 15 5 0 14 4 19 9 4 4 -12 5 -37 1 -52 -8 -62 -13 -55 -25 3 -4 -4 -6
-15 -3 -13 4 -20 0 -20 -10 0 -8 -7 -20 -15 -27 -12 -10 -16 -9 -22 5 -4 12 0
23 12 31 17 13 15 14 -23 14 -23 0 -42 5 -42 10 0 6 8 10 17 10 13 0 14 3 5
12 -8 8 -15 8 -28 -3 -16 -12 -17 -12 -11 4 5 13 3 17 -5 15 -7 -3 -15 -15
-18 -29 -5 -20 -7 -21 -13 -6 -3 9 -11 17 -18 17 -6 0 -9 -7 -5 -15 6 -18 -5
-20 -21 -4 -8 8 -15 4 -26 -17 -8 -16 -12 -34 -10 -40 2 -6 -6 -14 -18 -17
-18 -5 -20 -9 -11 -20 19 -22 -8 -68 -31 -55 -12 6 -17 5 -17 -4 -1 -8 -6 -6
-15 6 -7 10 -18 15 -24 12 -15 -9 -41 22 -41 50 0 15 -7 27 -17 30 -10 3 -26
10 -36 15 -15 8 -17 6 -15 -13 2 -13 6 -27 10 -33 3 -5 0 -16 -8 -23 -12 -11
-14 -10 -14 4 0 9 -9 27 -20 41 -19 24 -20 24 -20 5 0 -11 5 -33 10 -47 8 -22
8 -26 -4 -22 -7 3 -20 0 -27 -6 -11 -10 -11 -9 -1 4 6 9 9 19 5 22 -11 12 -23
8 -23 -8 0 -8 -5 -15 -11 -15 -6 0 -8 -8 -4 -19 3 -11 0 -23 -7 -27 -6 -4 -14
-2 -16 4 -2 7 -8 10 -13 6 -5 -3 -9 3 -9 12 0 10 -3 14 -7 10 -12 -12 -12 -40
0 -56 8 -10 6 -10 -9 2 -13 11 -30 16 -48 12 -15 -2 -25 -1 -23 3 7 11 -55 10
-72 -1 -11 -7 -13 -4 -9 12 4 12 2 20 -3 16 -5 -3 -9 0 -9 6 0 7 -6 10 -13 7
-6 -2 -18 2 -25 9 -7 8 -8 14 -2 14 5 0 10 5 10 12 0 8 -6 6 -17 -4 -13 -14
-14 -20 -4 -32 15 -17 7 -66 -10 -66 -6 0 -8 9 -4 23 5 17 4 19 -4 7 -8 -11
-13 -12 -19 -3 -6 10 -14 9 -36 -3 -36 -18 -42 -14 -16 13 16 18 17 22 4 27
-9 3 -20 4 -25 0 -5 -3 -9 5 -9 17 0 17 3 19 14 10 24 -20 29 6 6 29 -11 11
-20 16 -20 10 0 -5 -10 -10 -22 -10 -18 0 -20 -2 -9 -9 12 -8 12 -12 2 -24 -8
-10 -9 -17 -1 -22 15 -9 12 -35 -4 -35 -7 0 -28 -14 -46 -31 -28 -27 -34 -29
-47 -17 -13 13 -12 17 3 33 11 10 20 13 22 7 5 -15 32 -3 32 14 0 22 -44 16
-68 -9 -12 -13 -22 -29 -22 -36 0 -7 -6 -11 -15 -8 -16 7 -29 -6 -18 -17 14
-14 8 -44 -11 -56 -19 -12 -20 -12 -7 4 17 20 3 40 -22 30 -12 -4 -15 -14 -11
-33 14 -69 14 -69 -9 -73 -27 -5 -47 0 -47 13 0 4 6 6 14 3 19 -7 27 32 10 47
-11 9 -14 7 -14 -10 0 -13 -4 -19 -10 -16 -6 4 -8 11 -5 16 4 5 2 9 -3 9 -23
0 -19 -51 6 -77 14 -15 20 -29 14 -31 -6 -2 -8 -11 -5 -20 6 -14 5 -15 -9 -2
-9 8 -14 18 -12 21 1 3 -4 18 -11 33 -8 16 -12 32 -9 37 3 5 -2 6 -10 3 -9 -3
-16 -1 -16 5 0 6 -10 11 -22 11 -17 0 -19 3 -9 9 8 5 10 14 6 21 -5 8 -12 2
-21 -20 -16 -38 -18 -76 -4 -85 5 -3 6 -13 3 -22 -6 -14 -8 -14 -20 3 -11 15
-13 15 -13 2 0 -11 -8 -14 -30 -12 -24 3 -30 0 -30 -16 0 -16 5 -19 29 -14
l30 6 -2 -51 c0 -30 -5 -47 -10 -42 -5 5 -24 5 -43 1 -35 -8 -39 -4 -37 48 1
15 -13 16 -22 1 -15 -24 -12 -64 6 -80 10 -9 16 -18 13 -21 -9 -10 -52 16 -47
28 2 7 -4 20 -15 30 -25 25 -35 64 -16 64 8 0 14 -4 14 -10 0 -5 7 -10 15 -10
9 0 15 6 14 13 -3 25 1 35 18 41 9 4 19 3 22 -2 3 -6 16 10 27 34 18 35 19 44
7 44 -8 0 -12 -4 -9 -9 3 -5 -1 -12 -9 -15 -8 -3 -14 -11 -13 -18 2 -6 -5 -14
-14 -16 -12 -2 -18 3 -18 15 -1 17 -1 17 -14 1 -17 -23 -25 -23 -19 1 3 12 -2
20 -14 23 -32 8 -44 -1 -32 -24 8 -14 8 -23 1 -27 -6 -4 -14 -22 -17 -40 -3
-19 -10 -42 -15 -51 -5 -10 -6 -20 -3 -24 3 -3 -1 -6 -10 -6 -19 0 -23 16 -5
22 9 3 9 6 0 12 -7 4 -12 2 -12 -3 0 -6 -7 -11 -15 -11 -13 0 -14 -4 -3 -22 7
-13 13 -35 14 -50 1 -24 0 -25 -13 -13 -18 19 -24 19 -17 0 4 -8 1 -15 -5 -15
-6 0 -11 -7 -11 -15 0 -8 -5 -15 -11 -15 -6 0 -8 -10 -5 -22 3 -13 3 -17 0
-10 -11 24 -22 11 -26 -33 -2 -25 1 -47 7 -49 5 -3 2 -11 -7 -19 -10 -8 -15
-16 -13 -19 3 -3 -1 -17 -9 -32 -9 -18 -16 -23 -21 -16 -6 9 -10 9 -16 -1 -4
-8 -13 -15 -19 -15 -5 -1 -13 -2 -16 -3 -4 0 2 -13 11 -28 15 -22 15 -25 2
-20 -10 4 -14 0 -13 -11 2 -9 10 -17 19 -17 9 0 17 -5 16 -10 0 -6 -6 -9 -14
-7 -11 2 -38 -50 -32 -62 1 -2 -7 -13 -17 -25 -13 -14 -15 -21 -6 -21 10 0 10
-3 0 -15 -10 -12 -10 -19 -2 -27 15 -15 16 -32 2 -23 -6 3 -10 1 -10 -4 0 -6
-5 -11 -11 -11 -6 0 -9 9 -6 20 3 11 0 20 -6 20 -7 0 -12 -13 -12 -30 0 -16 3
-30 6 -30 3 0 14 -7 25 -15 18 -15 18 -15 0 -8 -17 6 -18 3 -12 -27 3 -19 12
-37 18 -41 8 -5 3 -11 -15 -18 -20 -8 -25 -15 -20 -28 4 -10 8 -12 11 -5 2 7
8 12 13 12 10 0 7 -35 -4 -46 -14 -14 -6 -22 21 -21 15 1 30 6 34 12 5 6 8 6
8 -2 0 -6 -4 -14 -10 -18 -5 -3 -7 -13 -4 -23 5 -14 4 -15 -5 -2 -5 8 -13 11
-17 8 -11 -12 4 -38 28 -48 13 -5 18 -9 11 -9 -8 -1 -10 -13 -6 -36 3 -20 1
-41 -6 -49 -9 -11 -9 -16 0 -21 6 -4 15 -1 20 6 6 9 9 10 9 2 0 -6 -4 -15 -10
-18 -15 -9 -12 -28 3 -22 8 3 20 1 28 -5 11 -8 10 -9 -4 -4 -9 3 -17 4 -17 1
0 -10 76 -161 87 -173 7 -7 17 -21 22 -30 5 -9 13 -13 17 -9 4 4 2 13 -4 19
-21 21 -13 32 9 12 28 -25 39 -56 27 -72 -8 -9 -5 -12 11 -12 24 0 27 10 9 28
-15 15 -6 15 26 1 21 -10 23 -15 16 -35 -6 -15 -6 -24 0 -24 6 0 10 6 10 14 0
30 29 23 62 -15 19 -21 31 -39 27 -39 -5 0 -6 -7 -3 -15 4 -8 10 -15 16 -15 5
0 6 5 3 10 -4 6 11 10 37 10 l43 0 -29 25 c-21 18 -24 25 -13 25 9 0 25 -9 35
-20 13 -14 25 -18 37 -14 14 6 17 4 12 -9 -8 -22 7 -22 39 0 17 11 28 13 32 6
10 -15 52 -26 52 -14 0 5 -10 13 -22 17 -22 7 -22 7 -3 15 17 6 17 8 3 8 -10
1 -18 5 -18 10 0 14 37 1 55 -19 9 -10 24 -16 36 -13 13 4 19 0 19 -11 0 -9
-6 -16 -14 -16 -8 0 -14 -6 -13 -12 1 -34 -4 -48 -18 -48 -17 0 -19 -18 -5
-40 8 -13 10 -12 10 3 0 19 16 23 22 5 6 -18 28 0 28 23 0 17 3 18 21 8 12 -6
24 -19 26 -29 5 -17 6 -17 23 0 11 11 17 28 15 39 -5 28 22 56 40 41 10 -9 15
-4 20 21 6 24 3 34 -9 41 -24 14 -9 30 15 17 12 -6 18 -17 15 -25 -6 -17 27
-54 49 -54 8 0 15 -4 15 -10 0 -5 7 -10 15 -10 8 0 15 -3 16 -7 0 -5 2 -16 4
-25 2 -10 -1 -20 -6 -24 -14 -8 0 -24 22 -24 10 0 19 -4 19 -9 0 -8 52 -31 71
-31 20 0 7 20 -15 26 -14 3 -27 12 -30 20 -3 8 -12 14 -21 14 -8 0 -15 5 -15
11 0 7 10 9 24 5 18 -4 28 -1 35 11 10 17 12 16 31 -7 11 -14 20 -19 20 -12 0
18 20 15 20 -4 0 -12 -7 -14 -31 -9 -24 6 -30 4 -27 -6 3 -8 10 -14 16 -13 7
1 28 2 48 2 24 2 33 6 28 14 -4 6 -8 26 -9 43 l-1 31 36 -12 c38 -13 60 -4 60
24 0 14 -2 14 -12 -1 -10 -13 -17 -14 -28 -6 -13 9 -12 10 2 5 12 -3 15 -1 11
9 -3 8 -9 12 -14 9 -5 -3 -9 -2 -10 3 -5 91 -4 105 13 120 20 18 23 33 7 33
-13 0 -59 41 -59 53 0 4 -12 19 -26 32 -28 26 -24 50 7 40 14 -5 17 -3 13 9
-3 9 -1 16 5 16 6 0 11 12 12 28 0 26 1 26 9 5 6 -16 14 -21 26 -16 15 5 15 7
1 15 -9 5 -14 15 -11 23 4 8 10 12 15 9 5 -3 9 0 9 5 0 6 -4 11 -10 11 -5 0
-10 5 -10 10 0 6 6 9 12 8 7 -2 13 4 13 12 0 10 -8 14 -22 13 -13 -2 -22 1
-22 5 4 21 -3 31 -16 26 -8 -4 -15 -2 -15 4 0 6 -9 8 -20 5 -21 -5 -28 11 -10
22 6 3 10 2 10 -4 0 -5 16 -8 35 -6 31 3 35 1 30 -16 -4 -10 -2 -19 3 -19 5 0
12 10 16 22 4 18 8 20 18 10 18 -18 23 -15 25 18 1 17 -3 30 -9 30 -6 0 -1 11
11 24 20 21 20 24 5 30 -11 4 -14 13 -11 27 4 15 2 19 -10 15 -8 -3 -17 -6
-19 -6 -2 0 -4 -6 -4 -13 0 -7 -10 -18 -21 -26 -18 -11 -23 -11 -30 1 -7 10
-9 10 -9 0 0 -7 -5 -18 -10 -25 -6 -7 -18 -22 -28 -33 -18 -23 -82 -41 -82
-24 0 6 5 10 10 10 6 0 10 7 10 17 0 14 2 14 20 -2 12 -11 20 -14 21 -7 3 26
4 31 12 38 14 15 7 35 -18 44 -22 8 -24 12 -13 35 6 14 19 25 30 25 30 0 20
15 -11 17 -23 2 -32 -3 -37 -19 -8 -27 -22 -6 -18 28 2 21 -1 24 -18 19 -14
-5 -21 -1 -25 14 -3 14 -13 21 -29 21 -13 0 -24 5 -24 10 0 6 6 10 13 10 8 0
7 3 -3 10 -20 12 -5 24 31 26 26 2 30 -1 26 -20 -3 -11 -2 -30 2 -41 7 -17 8
-17 15 8 6 26 26 38 26 17 0 -5 4 -10 9 -10 5 0 9 14 9 30 -1 17 -7 30 -14 30
-7 0 -10 8 -7 19 8 32 38 18 38 -17 -1 -40 11 -41 20 -2 7 30 35 43 35 15 0
-8 9 -15 20 -15 21 0 27 -15 10 -23 -6 -3 -5 -4 2 -3 7 2 13 9 13 17 0 8 6 19
14 25 12 9 11 12 -3 17 -9 4 -16 2 -16 -3 0 -6 -4 -10 -10 -10 -5 0 -10 7 -10
15 0 8 -6 15 -14 15 -23 0 -27 16 -9 31 15 12 16 12 11 -3 -4 -10 -1 -19 8
-22 28 -11 35 -7 24 14 -9 17 -8 20 9 20 11 0 21 9 25 23 11 42 23 52 40 37
23 -18 31 -6 10 14 -9 9 -14 20 -11 23 3 3 13 -2 22 -11 20 -19 46 -21 64 -3
11 10 14 10 18 0 3 -7 11 -13 19 -13 8 0 11 -6 8 -15 -5 -11 -2 -13 11 -9 9 4
20 2 24 -5 4 -6 7 4 7 24 -1 35 -9 44 -21 25 -9 -15 -25 -12 -25 4 0 7 -7 19
-15 26 -19 16 -19 30 0 30 8 0 14 -5 12 -11 -3 -17 32 -37 41 -22 5 8 15 0 31
-23 23 -33 23 -35 5 -55 -16 -17 -16 -19 -1 -13 9 3 17 10 17 16 0 5 9 7 19 3
23 -7 37 11 22 28 -6 8 -6 18 -1 27 9 13 10 13 10 0 0 -8 9 -21 21 -28 22 -14
19 -43 -8 -74 -11 -12 -11 -18 -2 -24 13 -8 42 24 35 41 -2 5 3 16 10 23 12
11 18 7 35 -23 12 -19 25 -35 30 -35 12 0 11 27 -1 35 -21 13 -8 21 29 19 28
-1 45 4 57 17 20 23 30 24 37 5 4 -10 0 -12 -15 -8 -14 3 -19 1 -14 -6 4 -7
16 -12 27 -12 10 0 19 -5 19 -11 0 -7 12 -8 33 -4 26 6 30 5 20 -6 -7 -7 -13
-20 -13 -29 1 -13 2 -13 13 1 7 8 20 18 31 22 15 6 17 4 12 -15 -3 -13 -6 -39
-6 -58 0 -26 -3 -31 -10 -20 -20 30 -10 -10 11 -45 17 -28 24 -33 35 -24 7 6
18 8 25 4 6 -4 16 -1 21 6 7 10 8 9 4 -6 -6 -24 12 -58 21 -37 6 15 33 16 33
1 0 -6 7 -3 16 5 20 20 30 21 14 1 -18 -22 4 -19 23 3 25 27 21 32 -20 28 -21
-3 -30 -2 -20 0 9 3 17 11 17 17 0 7 4 6 10 -3 8 -12 10 -12 16 3 3 9 13 17
21 17 8 0 11 -5 7 -11 -5 -9 1 -10 20 -5 19 5 26 3 26 -9 0 -17 25 -20 35 -5
4 6 2 17 -4 24 -11 13 -5 26 11 26 5 0 8 -12 7 -27 -2 -20 5 -36 24 -55 33
-33 33 -33 40 -8 3 11 1 20 -4 20 -20 0 -7 18 17 24 19 5 24 11 19 26 -7 23
16 28 33 7 13 -16 8 -83 -8 -101 -7 -10 -8 -16 0 -21 5 -3 10 -1 10 4 0 6 5
11 11 11 5 0 8 -4 5 -9 -4 -5 5 -4 18 2 17 8 22 15 15 23 -7 9 -3 17 12 27 15
11 21 27 22 56 1 23 -2 41 -7 41 -5 0 -3 6 3 14 9 11 9 16 -1 22 -9 6 -6 10
11 14 14 3 26 11 29 18 3 9 -3 11 -21 7 -20 -5 -25 -2 -30 17 -7 26 10 48 39
52 15 2 20 13 22 51 2 29 -1 51 -8 55 -7 4 -12 25 -13 46 0 22 -5 42 -11 46
-15 10 11 59 34 65 20 5 28 23 10 23 -5 0 -10 9 -10 20 0 11 -4 20 -10 20 -5
0 -10 7 -10 15 0 8 7 15 15 15 8 0 15 -5 15 -11 0 -8 5 -7 16 2 14 12 14 14 0
24 -9 7 -13 15 -9 19 4 4 1 11 -7 17 -13 8 -13 10 -1 18 12 8 12 11 0 23 -8 7
-20 13 -26 14 -28 2 -33 4 -33 14 0 6 6 10 13 9 22 -3 37 1 37 9 0 5 -10 8
-22 7 -13 -1 -29 2 -36 8 -9 7 -11 6 -6 -7 4 -9 1 -16 -6 -16 -6 0 -14 9 -17
20 -3 11 -20 29 -38 40 -19 12 -36 32 -40 48 -6 25 -8 26 -20 9 -11 -15 -13
-15 -18 -2 -4 9 2 19 14 26 18 9 20 17 15 49 -3 20 -12 49 -20 64 -13 25 -14
25 -19 6 -3 -11 -1 -20 4 -20 5 0 9 -9 9 -19 0 -11 4 -22 9 -25 13 -8 1 -46
-13 -46 -7 0 -19 12 -26 28 -8 15 -16 31 -19 36 -2 5 3 7 12 3 20 -7 22 4 5
21 -7 7 -9 12 -4 12 4 0 0 7 -9 16 -8 9 -22 14 -29 11 -9 -4 -18 5 -24 23 -9
24 -7 33 13 54 22 24 25 24 40 10 9 -9 19 -14 22 -11 7 8 -22 37 -37 37 -8 0
-10 9 -6 25 4 15 2 25 -4 25 -6 0 -8 -5 -4 -12 4 -7 3 -8 -4 -4 -6 4 -9 13 -6
20 3 8 -6 26 -21 40 -29 29 -40 33 -32 12 7 -17 -23 -46 -46 -46 -11 0 -17 8
-17 21 0 18 -2 19 -15 9 -13 -10 -15 -9 -15 9 0 12 6 21 15 21 7 0 19 8 24 18
10 16 10 16 11 0 0 -19 15 -24 25 -9 3 5 -8 19 -24 30 -25 18 -30 19 -35 5z
m-336 -73 c0 -5 -5 -11 -12 -13 -8 -3 -12 -21 -11 -45 1 -28 -4 -46 -14 -55
-15 -12 -16 -10 -9 15 4 16 2 27 -4 27 -5 0 -10 -7 -10 -15 0 -8 -8 -15 -17
-14 -11 0 -13 3 -5 6 6 2 15 22 18 44 4 21 10 37 14 34 4 -3 13 2 20 10 14 17
30 20 30 6z m414 -47 c7 -19 9 -17 -23 -34 -19 -10 -22 -10 -17 2 3 7 9 21 12
31 8 21 20 22 28 1z m-667 -36 c-15 -9 -19 -4 -11 16 5 14 9 15 15 5 5 -8 3
-17 -4 -21z m-30 -10 c-3 -8 -6 -5 -6 6 -1 11 2 17 5 13 3 -3 4 -12 1 -19z
m353 -3 c0 -9 -6 -12 -15 -9 -8 4 -12 10 -9 15 8 14 24 10 24 -6z m-447 -41
c-7 -3 -10 -11 -7 -19 7 -16 -12 -29 -21 -15 -8 13 13 40 29 39 7 0 7 -2 -1
-5z m616 -25 c-9 -17 -13 -18 -26 -8 -13 12 -13 14 3 26 23 17 37 6 23 -18z
m-974 1 c3 -5 1 -10 -4 -10 -6 0 -11 5 -11 10 0 6 2 10 4 10 3 0 8 -4 11 -10z
m155 -22 c0 -18 -2 -20 -9 -8 -6 8 -7 18 -5 22 9 14 14 9 14 -14z m945 6 c6 0
16 -2 24 -2 10 -2 11 -5 2 -15 -13 -16 -5 -28 13 -21 17 6 14 -29 -4 -51 -7
-9 -20 -14 -29 -13 -9 2 -21 -3 -28 -12 -11 -13 -12 -13 -13 3 0 9 -4 17 -9
17 -5 0 -11 9 -14 21 -3 12 -10 18 -16 14 -6 -3 -11 -2 -11 4 0 12 28 41 41
41 5 0 9 7 9 16 0 10 4 12 13 7 6 -4 17 -8 22 -9z m-985 -9 c0 -8 -2 -15 -4
-15 -2 0 -6 7 -10 15 -3 8 -1 15 4 15 6 0 10 -7 10 -15z m155 4 c12 -18 -3
-22 -20 -5 -14 14 -14 16 -1 16 8 0 18 -5 21 -11z m335 1 c0 -5 -4 -10 -10
-10 -5 0 -10 5 -10 10 0 6 5 10 10 10 6 0 10 -4 10 -10z m-300 -10 c0 -5 -5
-10 -11 -10 -5 0 -7 5 -4 10 3 6 8 10 11 10 2 0 4 -4 4 -10z m493 3 c-7 -2
-19 -2 -25 0 -7 3 -2 5 12 5 14 0 19 -2 13 -5z m-160 -18 c4 -8 2 -17 -3 -20
-6 -4 -10 3 -10 14 0 25 6 27 13 6z m-576 -17 c-3 -8 -6 -5 -6 6 -1 11 2 17 5
13 3 -3 4 -12 1 -19z m648 -8 c3 -5 1 -10 -4 -10 -6 0 -11 5 -11 10 0 6 2 10
4 10 3 0 8 -4 11 -10z m495 -25 c0 -5 -5 -3 -10 5 -5 8 -10 20 -10 25 0 6 5 3
10 -5 5 -8 10 -19 10 -25z m-1050 11 c0 -8 -7 -22 -16 -30 -8 -9 -13 -20 -10
-24 3 -5 -4 -21 -15 -38 -10 -16 -19 -24 -19 -18 0 5 6 19 14 29 10 14 11 25
5 38 -6 9 -6 16 -2 15 4 -2 9 0 10 5 3 7 26 36 31 37 1 0 2 -6 2 -14z m157 -8
c-3 -8 -6 -5 -6 6 -1 11 2 17 5 13 3 -3 4 -12 1 -19z m428 2 c3 -5 1 -10 -4
-10 -6 0 -11 5 -11 10 0 6 2 10 4 10 3 0 8 -4 11 -10z m-552 -14 c3 -8 -2 -16
-13 -19 -16 -4 -17 -2 -7 14 14 23 13 23 20 5z m356 -22 c-6 -8 -18 -14 -25
-14 -20 0 -17 28 4 33 25 5 35 -3 21 -19z m-324 -14 c4 -6 2 -17 -5 -25 -8
-10 -8 -15 1 -21 7 -4 15 -2 17 4 5 15 32 16 32 2 0 -5 -3 -10 -7 -9 -15 2
-53 -13 -53 -21 0 -5 9 -6 20 -3 14 4 20 0 20 -11 0 -9 -6 -16 -12 -17 -7 0
-4 -4 7 -8 26 -11 35 -5 35 25 0 28 6 30 26 9 9 -8 11 -15 6 -15 -6 0 -4 -18
4 -45 7 -26 9 -45 4 -45 -6 0 -10 7 -10 15 0 8 -7 15 -16 15 -9 0 -12 5 -8 11
4 7 1 10 -7 7 -8 -3 -13 -11 -11 -17 1 -7 -11 -2 -28 11 -17 12 -28 28 -26 35
3 7 -1 13 -10 13 -12 0 -12 -4 -4 -20 7 -12 7 -20 1 -20 -14 0 -24 37 -14 52
4 7 9 24 9 38 3 47 4 50 13 50 6 0 13 -5 16 -10z m-640 -21 c3 -4 -7 -6 -22
-5 -36 5 -35 4 -29 15 7 10 43 3 51 -10z m419 -4 c23 -17 13 -34 -11 -19 -19
12 -29 34 -16 34 4 0 17 -7 27 -15z m1120 -10 c-4 -8 -13 -15 -20 -15 -12 0
-12 3 -2 15 17 19 29 19 22 0z m-1434 -25 c0 -5 -2 -10 -4 -10 -3 0 -8 5 -11
10 -3 6 -1 10 4 10 6 0 11 -4 11 -10z m1543 -10 c-6 -24 -26 -21 -31 3 -2 11
3 17 16 17 15 0 19 -5 15 -20z m-1093 0 c0 -5 -5 -10 -11 -10 -5 0 -7 5 -4 10
3 6 8 10 11 10 2 0 4 -4 4 -10z m855 -40 c3 -5 1 -10 -4 -10 -6 0 -11 5 -11
10 0 6 2 10 4 10 3 0 8 -4 11 -10z m175 -20 c0 -11 -2 -20 -4 -20 -2 0 -6 9
-9 20 -3 11 -1 20 4 20 5 0 9 -9 9 -20z m200 -16 c0 -8 -5 -12 -10 -9 -6 4 -8
11 -5 16 9 14 15 11 15 -7z m-1764 -32 c-8 -9 -19 -13 -22 -9 -10 9 16 38 28
31 6 -4 4 -13 -6 -22z m570 -9 c-11 -11 -19 6 -11 24 8 17 8 17 12 0 3 -10 2
-21 -1 -24z m1004 20 c0 -5 -7 -17 -15 -27 -14 -19 -15 -19 -15 7 0 17 5 27
15 27 8 0 15 -3 15 -7z m-63 -25 c-3 -8 -6 -5 -6 6 -1 11 2 17 5 13 3 -3 4
-12 1 -19z m73 -3 c-7 -9 -15 -13 -17 -11 -7 7 7 26 19 26 6 0 6 -6 -2 -15z
m-923 -1 c-3 -3 -12 -4 -19 -1 -8 3 -5 6 6 6 11 1 17 -2 13 -5z m959 -9 c-3
-8 1 -21 9 -29 13 -12 13 -19 0 -50 -20 -47 -28 -46 -23 3 2 28 0 37 -9 34
-14 -6 -8 21 10 45 13 16 20 15 13 -3z m-437 -9 c9 -11 8 -15 -5 -20 -20 -8
-39 7 -30 23 10 15 21 14 35 -3z m-779 -12 c0 -8 -4 -12 -10 -9 -5 3 -10 10
-10 16 0 5 5 9 10 9 6 0 10 -7 10 -16z m-92 -17 c2 -12 -3 -17 -17 -17 -15 0
-21 6 -21 21 0 25 33 22 38 -4z m627 -27 c14 -27 21 -50 15 -50 -5 0 -10 6
-11 13 0 10 -2 10 -6 0 -2 -7 -15 -13 -28 -13 -31 0 -56 -10 -50 -20 3 -5 15
-6 28 -3 l22 6 -20 -20 -20 -20 -12 21 c-23 42 7 132 35 104 8 -8 9 -5 5 11
-10 40 16 21 42 -29z m-1042 20 c3 -11 1 -20 -4 -20 -5 0 -9 2 -9 4 0 2 -3 11
-6 20 -3 9 -2 16 4 16 5 0 12 -9 15 -20z m827 10 c0 -5 -2 -10 -4 -10 -3 0 -8
5 -11 10 -3 6 -1 10 4 10 6 0 11 -4 11 -10z m13 -40 c3 -11 1 -20 -4 -20 -5 0
-9 9 -9 20 0 11 2 20 4 20 2 0 6 -9 9 -20z m840 13 c-7 -2 -19 -2 -25 0 -7 3
-2 5 12 5 14 0 19 -2 13 -5z m-1725 -28 c-3 -3 -9 2 -12 12 -6 14 -5 15 5 6 7
-7 10 -15 7 -18z m845 18 c-7 -2 -13 -13 -13 -23 0 -10 -6 -20 -13 -23 -19 -7
-17 25 2 40 9 7 21 12 26 12 6 0 4 -3 -2 -6z m-936 -35 c-3 -8 -6 -5 -6 6 -1
11 2 17 5 13 3 -3 4 -12 1 -19z m78 -23 c-4 -37 -13 -42 -35 -17 -11 12 -15
17 -8 12 19 -16 30 -12 23 10 -4 14 -2 20 8 20 10 0 14 -8 12 -25z m859 -10
c-4 -8 -8 -15 -10 -15 -2 0 -4 7 -4 15 0 8 4 15 10 15 5 0 7 -7 4 -15z m-60
-44 c-9 -10 -26 18 -18 30 5 9 9 8 14 -7 4 -10 6 -21 4 -23z m-439 19 c3 -5 1
-10 -4 -10 -6 0 -11 5 -11 10 0 6 2 10 4 10 3 0 8 -4 11 -10z m-315 -15 c0 -8
-8 -15 -18 -15 -10 0 -19 7 -19 15 0 8 9 15 19 15 10 0 18 -7 18 -15z m1674
-11 c9 -23 8 -24 -14 -24 -19 0 -27 20 -13 33 11 11 20 8 27 -9z m-1208 -14
c8 0 14 5 14 10 0 6 5 10 12 10 6 0 8 -3 5 -7 -4 -3 0 -11 7 -17 8 -6 17 -25
21 -42 5 -27 2 -35 -22 -54 -16 -12 -29 -17 -31 -11 -6 19 -22 12 -22 -9 0
-25 -12 -26 -28 0 -8 13 -18 17 -29 13 -16 -6 -16 -4 2 17 11 13 15 20 9 17
-7 -4 -14 0 -18 8 -3 8 -1 15 5 15 5 0 12 8 16 18 8 23 37 51 41 41 2 -5 10
-9 18 -9z m1074 16 c0 -3 -4 -8 -10 -11 -5 -3 -10 -1 -10 4 0 6 5 11 10 11 6
0 10 -2 10 -4z m-1203 -33 c-14 -14 -19 -15 -29 -4 -11 11 -10 13 4 8 10 -3
20 -2 23 3 4 6 9 10 13 10 3 0 -1 -8 -11 -17z m318 -9 c-8 -9 -15 -22 -15 -30
0 -8 -4 -13 -10 -9 -10 6 -3 33 14 51 6 7 14 10 19 7 4 -2 0 -11 -8 -19z m130
6 c9 -29 -2 -42 -25 -30 -25 13 -30 13 -30 -4 0 -8 -7 -17 -16 -20 -25 -10
-26 -2 -4 21 10 12 16 24 12 29 -4 4 -2 4 4 1 7 -4 14 0 18 8 8 22 34 18 41
-5z m-659 -26 c-6 -31 -16 -45 -16 -21 0 18 10 47 16 47 3 0 2 -12 0 -26z
m180 -27 c-4 -42 -26 -48 -26 -7 0 22 4 29 13 24 10 -6 10 -4 0 7 -18 18 -16
34 2 19 9 -7 13 -24 11 -43z m746 1 c-12 -12 -32 -2 -32 17 0 18 34 24 38 7 2
-8 -1 -19 -6 -24z m578 38 c0 -3 -4 -8 -10 -11 -5 -3 -10 -1 -10 4 0 6 5 11
10 11 6 0 10 -2 10 -4z m-1680 -26 c0 -5 -7 -10 -15 -10 -8 0 -15 5 -15 10 0
6 7 10 15 10 8 0 15 -4 15 -10z m1620 -10 c0 -5 -5 -10 -11 -10 -5 0 -7 5 -4
10 3 6 8 10 11 10 2 0 4 -4 4 -10z m-710 -21 c0 -5 -4 -9 -10 -9 -5 0 -10 7
-10 16 0 8 5 12 10 9 6 -3 10 -10 10 -16z m680 9 c-1 -14 -34 -58 -45 -58 -3
0 -3 10 1 22 12 38 44 64 44 36z m-1715 -18 c25 0 23 -15 -6 -45 l-30 -29 3
32 c1 18 6 32 10 32 4 0 6 6 4 13 -1 6 -1 9 1 5 3 -5 11 -8 18 -8z m281 -18
c-9 -8 -34 12 -29 24 4 12 8 11 18 -3 8 -10 12 -19 11 -21z m579 28 c3 -5 1
-10 -4 -10 -6 0 -11 5 -11 10 0 6 2 10 4 10 3 0 8 -4 11 -10z m-748 -36 c-3
-4 -14 -3 -24 0 -15 6 -15 8 -3 16 16 10 39 -4 27 -16z m267 -6 c-7 -11 -44
-10 -44 2 0 16 34 30 42 17 4 -6 4 -15 2 -19z m533 15 c-4 -3 -2 -12 4 -19 7
-8 7 -14 -1 -19 -5 -3 -10 1 -10 10 0 12 -5 15 -17 11 -15 -5 -15 -4 1 9 20
15 35 21 23 8z m123 -7 c0 -3 -4 -8 -10 -11 -5 -3 -10 -1 -10 4 0 6 5 11 10
11 6 0 10 -2 10 -4z m270 -6 c0 -5 -4 -10 -10 -10 -16 0 -12 -18 5 -22 10 -2
12 -7 5 -18 -11 -19 -18 -11 -26 28 -5 25 -3 32 10 32 9 0 16 -4 16 -10z m134
-15 c-4 -8 -10 -15 -15 -15 -4 0 -6 7 -3 15 4 8 10 15 15 15 4 0 6 -7 3 -15z
m306 -5 c0 -5 -4 -10 -10 -10 -5 0 -10 5 -10 10 0 6 5 10 10 10 6 0 10 -4 10
-10z m-1552 -20 c-7 -11 -15 -15 -17 -9 -2 6 3 15 10 20 20 12 21 11 7 -11z
m797 10 c-3 -5 1 -10 9 -10 14 0 14 -3 4 -20 -17 -27 -23 -25 -26 10 -1 17 3
30 8 30 6 0 8 -4 5 -10z m58 4 c3 -3 3 -13 0 -21 -5 -12 -7 -12 -14 -1 -15 23
-4 40 14 22z m320 -10 c-3 -9 0 -20 8 -25 8 -5 9 -9 3 -9 -8 0 -9 -11 -4 -35
9 -39 9 -39 -37 -23 -36 13 -44 28 -14 28 11 0 23 5 27 12 4 6 3 8 -4 4 -17
-10 -20 27 -4 47 19 21 33 22 25 1z m173 -21 c-10 -10 -19 5 -10 18 6 11 8 11
12 0 2 -7 1 -15 -2 -18z m155 -26 c-12 -12 -21 -16 -21 -9 0 7 -8 12 -17 12
-17 1 -17 1 0 11 9 5 21 8 26 5 5 -3 12 4 16 17 6 20 8 20 12 3 3 -11 -4 -27
-16 -39z m416 37 c8 -21 -13 -42 -28 -27 -13 13 -5 43 11 43 6 0 13 -7 17 -16z
m-2157 -8 c0 -8 -4 -18 -10 -21 -5 -3 -10 3 -10 14 0 12 5 21 10 21 6 0 10 -6
10 -14z m930 5 c0 -6 -4 -13 -10 -16 -5 -3 -10 -24 -10 -46 0 -45 -16 -51 -31
-12 -7 20 -7 28 3 34 7 5 14 14 14 21 1 7 2 16 3 21 2 10 31 9 31 -2z m-620
-5 c0 -3 -4 -8 -10 -11 -5 -3 -10 -1 -10 4 0 6 5 11 10 11 6 0 10 -2 10 -4z
m1152 -10 c7 4 8 2 4 -5 -9 -13 -26 -5 -25 12 0 9 2 8 6 -1 2 -6 10 -9 15 -6z
m-1481 -31 c5 -7 1 -11 -10 -12 -14 -1 -17 4 -13 25 3 17 7 21 10 12 3 -8 8
-20 13 -25z m2039 21 c0 -11 -19 -15 -25 -6 -3 5 1 10 9 10 9 0 16 -2 16 -4z
m177 -11 c3 -9 3 -18 1 -21 -9 -9 -38 8 -38 22 0 19 29 18 37 -1z m-2022 -1
c11 -5 13 -9 5 -14 -14 -9 -2 -40 14 -34 7 3 19 -2 26 -10 7 -9 16 -13 21 -10
5 3 9 1 9 -4 0 -5 -11 -15 -25 -22 -14 -7 -24 -20 -23 -28 2 -8 -6 -19 -17
-26 -10 -6 -25 -17 -33 -23 -16 -15 -32 -16 -52 -3 -12 8 -12 10 5 10 16 0 14
4 -12 21 -34 22 -40 33 -23 44 6 4 8 11 4 16 -3 5 -10 7 -15 4 -5 -4 -9 -2 -9
3 0 10 61 67 72 67 3 0 10 3 14 8 9 9 17 9 39 1z m455 -9 c0 -8 -4 -15 -9 -15
-13 0 -22 16 -14 24 11 11 23 6 23 -9z m366 -12 c-10 -10 -19 5 -10 18 6 11 8
11 12 0 2 -7 1 -15 -2 -18z m94 17 c0 -5 -5 -10 -11 -10 -5 0 -7 5 -4 10 3 6
8 10 11 10 2 0 4 -4 4 -10z m560 0 c0 -5 -4 -10 -10 -10 -5 0 -10 5 -10 10 0
6 5 10 10 10 6 0 10 -4 10 -10z m-810 -26 c13 -33 13 -41 -1 -27 -6 6 -18 9
-27 5 -12 -4 -14 -1 -9 12 4 10 7 22 7 27 0 19 21 8 30 -17z m110 11 c0 -8 -2
-15 -4 -15 -2 0 -6 7 -10 15 -3 8 -1 15 4 15 6 0 10 -7 10 -15z m523 -5 c3
-11 1 -20 -4 -20 -4 0 -13 9 -19 20 -8 16 -8 20 3 20 8 0 17 -9 20 -20z m540
3 c-9 -3 -10 -10 -4 -21 5 -9 9 -33 9 -53 0 -35 -1 -36 -17 -20 -23 22 -14
102 11 100 10 0 10 -2 1 -6z m-251 -45 c-9 -9 -12 -9 -13 3 0 7 -5 3 -10 -10
-14 -35 -21 -20 -8 18 11 30 13 31 27 17 13 -12 14 -18 4 -28z m-1945 25 c-4
-3 -2 -12 4 -20 9 -10 8 -13 -4 -13 -8 0 -17 -10 -20 -22 -4 -12 -8 -20 -11
-17 -7 7 18 79 28 79 5 0 6 -3 3 -7z m1880 -50 c-8 -9 -20 -12 -26 -9 -17 11
-13 23 9 29 11 3 21 13 21 24 1 12 3 11 6 -6 3 -13 -2 -30 -10 -38z m-907 2
c-18 -21 -41 -20 -33 3 9 23 26 33 37 22 6 -6 4 -15 -4 -25z m-813 5 c-1 -20
-8 -25 -20 -14 -7 8 3 34 13 34 5 0 8 -9 7 -20z m1833 16 c0 -3 -4 -8 -10 -11
-5 -3 -10 -1 -10 4 0 6 5 11 10 11 6 0 10 -2 10 -4z m-1955 -26 c0 -18 -16
-22 -35 -10 -13 9 -13 11 0 20 19 12 35 8 35 -10z m2103 -43 c-5 -9 -7 -21 -4
-26 3 -5 -6 -11 -19 -14 -28 -5 -48 19 -50 60 0 17 3 20 17 12 10 -5 18 -15
18 -22 0 -7 8 0 18 16 14 23 18 25 23 10 4 -10 2 -26 -3 -36z m-175 27 c3 -3
3 -13 0 -21 -5 -12 -7 -12 -14 -1 -15 23 -4 40 14 22z m347 -4 c0 -5 -4 -10
-10 -10 -5 0 -10 5 -10 10 0 6 5 10 10 10 6 0 10 -4 10 -10z m-1730 -19 c0
-14 -18 -23 -30 -16 -6 4 -8 11 -5 16 8 12 35 12 35 0z m403 -16 c-7 -19 -17
-19 -32 -1 -10 11 -8 15 6 18 25 6 33 0 26 -17z m1337 5 c0 -5 -5 -10 -11 -10
-5 0 -7 5 -4 10 3 6 8 10 11 10 2 0 4 -4 4 -10z m-260 -41 c0 -11 -4 -17 -10
-14 -5 3 -10 13 -10 21 0 8 5 14 10 14 6 0 10 -9 10 -21z m120 11 c0 -5 -7
-10 -16 -10 -8 0 -12 5 -9 10 3 6 10 10 16 10 5 0 9 -4 9 -10z m-269 -13 c-1
-12 -15 -9 -19 4 -3 6 1 10 8 8 6 -3 11 -8 11 -12z m-1796 -17 c3 -5 -1 -10
-9 -10 -9 0 -16 5 -16 10 0 6 4 10 9 10 6 0 13 -4 16 -10z m-81 -15 c-4 -8 -8
-15 -10 -15 -2 0 -4 7 -4 15 0 8 4 15 10 15 5 0 7 -7 4 -15z m825 -35 c16 9
44 -17 35 -32 -3 -5 3 -8 13 -9 10 0 13 -3 6 -5 -7 -3 -22 0 -34 6 -15 8 -19
9 -15 1 4 -7 -1 -11 -13 -11 -12 0 -21 -4 -21 -10 0 -5 6 -10 13 -10 8 0 24
-9 37 -20 13 -11 27 -20 32 -20 4 0 8 -4 8 -10 0 -17 -16 -11 -42 14 -13 14
-33 23 -44 22 -10 -2 -28 4 -38 13 -14 12 -20 13 -23 4 -3 -7 -11 -13 -18 -13
-17 0 -40 -39 -36 -60 2 -12 0 -12 -10 -3 -10 10 -10 17 0 37 8 13 10 29 7 35
-5 7 -1 8 10 4 17 -6 17 6 -3 71 -3 11 -1 16 5 12 6 -3 13 -2 17 4 3 5 15 10
26 10 10 0 19 6 19 13 0 6 12 -2 28 -20 19 -23 31 -30 41 -23z m8 24 c-3 -3
-12 -4 -19 -1 -8 3 -5 6 6 6 11 1 17 -2 13 -5z m-822 -84 c-12 -19 -22 -10
-17 16 4 22 6 24 14 10 5 -9 6 -21 3 -26z m881 -19 c-9 -14 20 -32 39 -25 13
5 16 3 13 -7 -3 -8 -11 -13 -18 -11 -8 2 -10 -3 -5 -15 4 -10 9 -27 12 -38 4
-18 2 -18 -16 4 -12 13 -19 31 -16 41 3 9 -1 23 -10 30 -13 11 -12 30 1 30 3
0 3 -4 0 -9z m-480 -48 c-10 -10 -19 5 -10 18 6 11 8 11 12 0 2 -7 1 -15 -2
-18z m366 -15 c-7 -7 -12 -8 -12 -2 0 14 12 26 19 19 2 -3 -1 -11 -7 -17z
m-458 -12 c-8 -20 -20 -21 -28 0 -4 12 -2 15 9 10 8 -3 15 0 15 6 0 6 2 9 5 6
3 -3 3 -13 -1 -22z m-127 -1 c7 -20 -2 -29 -21 -22 -9 4 -13 13 -10 22 8 19
23 19 31 0z m638 5 c3 -5 -1 -10 -10 -10 -9 0 -13 5 -10 10 3 6 8 10 10 10 2
0 7 -4 10 -10z m-797 -23 c2 -10 -3 -17 -12 -17 -10 0 -16 9 -16 21 0 24 23
21 28 -4z m327 2 c0 -8 -9 -14 -22 -13 -13 0 -23 -3 -23 -8 0 -5 -5 -6 -10 -3
-6 4 -1 14 12 25 25 21 43 21 43 -1z m488 -9 c-3 -11 -12 -20 -21 -20 -13 0
-12 3 3 20 10 11 19 20 21 20 1 0 0 -9 -3 -20z m41 -14 c-5 -14 -34 -31 -34
-20 0 8 24 33 32 34 4 0 5 -6 2 -14z m41 -24 c-8 -2 -15 -9 -16 -15 0 -7 -4
-3 -8 8 -12 28 -4 37 20 22 16 -10 17 -13 4 -15z m-551 3 c-4 -8 -8 -15 -10
-15 -2 0 -4 7 -4 15 0 8 4 15 10 15 5 0 7 -7 4 -15z m413 -39 c-1 -30 -6 -58
-10 -62 -4 -4 -7 -1 -7 8 0 8 -9 23 -20 33 -21 19 -18 38 4 29 7 -3 16 2 20
12 5 13 4 14 -7 6 -8 -7 -17 -9 -20 -5 -7 6 21 32 35 33 4 0 6 -24 5 -54z
m273 14 c0 -5 -2 -10 -4 -10 -3 0 -8 5 -11 10 -3 6 -1 10 4 10 6 0 11 -4 11
-10z m-990 -39 c0 -5 -9 -7 -20 -4 -11 3 -20 7 -20 9 0 2 9 4 20 4 11 0 20 -4
20 -9z m225 -1 c3 -5 1 -10 -4 -10 -6 0 -11 5 -11 10 0 6 2 10 4 10 3 0 8 -4
11 -10z m395 -21 c0 -11 -5 -19 -12 -17 -17 6 -19 38 -2 38 8 0 14 -9 14 -21z
m-105 -27 c-6 -6 -35 18 -35 29 0 5 9 1 20 -8 11 -9 17 -19 15 -21z m458 23
c4 -8 2 -17 -3 -20 -6 -4 -10 3 -10 14 0 25 6 27 13 6z m-525 -33 c2 -7 -3
-12 -12 -12 -9 0 -16 7 -16 16 0 17 22 14 28 -4z m-48 -6 c0 -20 -19 -31 -32
-18 -6 6 -7 15 -4 21 10 16 36 13 36 -3z m293 0 c3 -8 3 -17 0 -20 -9 -9 -34
15 -27 25 8 13 21 11 27 -5z m244 -11 c0 -8 -7 -17 -16 -20 -13 -5 -13 -7 -1
-15 11 -7 10 -9 -7 -7 -22 1 -28 30 -10 54 11 15 34 7 34 -12z m-857 -25 c0
-5 -7 -10 -15 -10 -8 0 -15 5 -15 10 0 6 7 10 15 10 8 0 15 -4 15 -10z m210
-46 c0 -17 -26 -19 -36 -3 -7 12 15 31 28 23 4 -3 8 -12 8 -20z m173 -24 c-7
-8 -22 24 -16 34 4 5 10 1 13 -10 4 -10 6 -21 3 -24z m67 19 c13 -22 7 -49
-10 -49 -7 0 -7 7 1 22 10 18 9 20 -5 15 -11 -5 -16 -1 -16 13 0 26 16 25 30
-1z m-330 1 c0 -12 -28 -25 -36 -17 -9 9 6 27 22 27 8 0 14 -5 14 -10z m190 0
c0 -5 -4 -10 -10 -10 -5 0 -10 5 -10 10 0 6 5 10 10 10 6 0 10 -4 10 -10z
m359 -124 c9 -11 8 -15 -5 -20 -20 -8 -39 7 -30 23 10 15 21 14 35 -3z m-144
-26 c3 -5 1 -10 -4 -10 -6 0 -11 5 -11 10 0 6 2 10 4 10 3 0 8 -4 11 -10z
m222 -42 c-3 -8 -6 -5 -6 6 -1 11 2 17 5 13 3 -3 4 -12 1 -19z m61 -4 c7 4 12
3 12 -2 0 -6 -8 -13 -17 -16 -20 -8 -48 17 -38 34 5 8 11 6 19 -6 7 -9 18 -14
24 -10z m-445 -38 c4 -10 1 -13 -9 -9 -15 6 -19 23 -5 23 5 0 11 -7 14 -14z
m140 7 c-19 -7 -15 -24 5 -21 11 2 16 -3 14 -14 -2 -10 1 -18 7 -18 5 0 7 -10
4 -21 -6 -21 -6 -21 -18 1 -9 18 -14 20 -19 9 -3 -8 -4 -4 -2 8 2 12 -1 24 -7
26 -14 4 -1 37 15 36 10 0 10 -2 1 -6z m207 -3 c0 -5 -2 -10 -4 -10 -3 0 -8 5
-11 10 -3 6 -1 10 4 10 6 0 11 -4 11 -10z m40 -4 c0 -3 -4 -8 -10 -11 -5 -3
-10 -1 -10 4 0 6 5 11 10 11 6 0 10 -2 10 -4z m100 -57 c0 -5 -4 -9 -8 -9 -5
0 -9 7 -9 15 0 8 4 12 9 9 4 -3 8 -9 8 -15z m7 -41 c-3 -8 -6 -5 -6 6 -1 11 2
17 5 13 3 -3 4 -12 1 -19z m-67 -39 c0 -4 -8 -5 -18 -2 -10 2 -19 10 -19 18 0
10 4 11 19 2 10 -7 18 -15 18 -18z"/>
<path d="M540 1329 c0 -5 5 -7 10 -4 6 3 10 8 10 11 0 2 -4 4 -10 4 -5 0 -10
-5 -10 -11z"/>
<path d="M1115 1160 c3 -5 8 -10 11 -10 2 0 4 5 4 10 0 6 -5 10 -11 10 -5 0
-7 -4 -4 -10z"/>
<path d="M2115 2440 c-3 -5 1 -10 9 -10 9 0 16 5 16 10 0 6 -4 10 -9 10 -6 0
-13 -4 -16 -10z"/>
<path d="M1836 2401 c-4 -5 -2 -12 3 -15 5 -4 12 -2 15 3 4 5 2 12 -3 15 -5 4
-12 2 -15 -3z"/>
<path d="M1799 2368 c15 -21 31 -23 31 -6 0 6 -3 8 -7 5 -3 -4 -13 -1 -22 6
-14 11 -14 10 -2 -5z"/>
<path d="M1208 2293 c7 -3 16 -2 19 1 4 3 -2 6 -13 5 -11 0 -14 -3 -6 -6z"/>
<path d="M906 2237 c3 -10 9 -15 12 -12 3 3 0 11 -7 18 -10 9 -11 8 -5 -6z"/>
<path d="M854 2228 c-5 -7 -2 -9 8 -5 9 3 22 0 29 -6 11 -10 11 -9 0 6 -16 20
-27 22 -37 5z"/>
<path d="M762 2150 c-18 -29 -15 -38 4 -12 9 13 14 25 12 27 -2 2 -9 -5 -16
-15z"/>
<path d="M802 2159 c2 -7 10 -15 17 -17 8 -3 12 1 9 9 -2 7 -10 15 -17 17 -8
3 -12 -1 -9 -9z"/>
<path d="M690 2096 c0 -9 5 -16 10 -16 6 0 10 4 10 9 0 6 -4 13 -10 16 -5 3
-10 -1 -10 -9z"/>
<path d="M601 2084 c0 -11 3 -14 6 -6 3 7 2 16 -1 19 -3 4 -6 -2 -5 -13z"/>
<path d="M640 2089 c0 -5 5 -7 10 -4 6 3 10 8 10 11 0 2 -4 4 -10 4 -5 0 -10
-5 -10 -11z"/>
<path d="M615 1920 c4 -6 11 -8 16 -5 14 9 11 15 -7 15 -8 0 -12 -5 -9 -10z"/>
<path d="M1665 1400 c3 -5 8 -10 11 -10 2 0 4 5 4 10 0 6 -5 10 -11 10 -5 0
-7 -4 -4 -10z"/>
<path d="M1746 1371 c-4 -7 -5 -15 -2 -18 9 -9 19 4 14 18 -4 11 -6 11 -12 0z"/>
<path d="M1484 1344 c-17 -14 -17 -15 -1 -10 10 3 23 6 28 6 5 0 9 5 9 10 0
14 -13 12 -36 -6z"/>
<path d="M1610 1350 c0 -5 5 -10 10 -10 6 0 10 5 10 10 0 6 -4 10 -10 10 -5 0
-10 -4 -10 -10z"/>
<path d="M1700 1350 c0 -5 5 -10 11 -10 5 0 7 5 4 10 -3 6 -8 10 -11 10 -2 0
-4 -4 -4 -10z"/>
<path d="M1537 1334 c-4 -4 -7 -14 -7 -23 0 -11 3 -12 11 -4 6 6 10 16 7 23
-2 6 -7 8 -11 4z"/>
<path d="M1930 1332 c0 -19 12 -42 22 -42 14 0 5 43 -9 48 -7 2 -13 -1 -13 -6z"/>
<path d="M1826 1301 c-3 -4 4 -17 16 -27 12 -11 18 -14 15 -7 -4 6 -3 14 3 18
6 4 8 11 5 16 -8 11 -32 12 -39 0z"/>
<path d="M1661 1284 c0 -11 3 -14 6 -6 3 7 2 16 -1 19 -3 4 -6 -2 -5 -13z"/>
<path d="M2075 1290 c3 -5 8 -10 11 -10 2 0 4 5 4 10 0 6 -5 10 -11 10 -5 0
-7 -4 -4 -10z"/>
<path d="M1450 1240 c0 -5 5 -10 11 -10 5 0 7 5 4 10 -3 6 -8 10 -11 10 -2 0
-4 -4 -4 -10z"/>
<path d="M1722 1180 c0 -14 2 -19 5 -12 2 6 2 18 0 25 -3 6 -5 1 -5 -13z"/>
<path d="M1381 1181 c-7 -5 -12 -14 -10 -20 2 -6 10 -2 17 9 14 22 13 23 -7
11z"/>
<path d="M1542 1114 c9 -19 14 -21 25 -13 11 10 12 8 7 -7 -19 -59 -28 -75
-40 -70 -7 3 -16 1 -19 -4 -4 -6 5 -10 19 -10 14 0 26 4 26 9 0 5 6 16 14 24
8 8 16 32 18 53 3 38 2 39 -29 41 -30 1 -31 0 -21 -23z"/>
<path d="M1440 1113 c1 -18 18 -35 24 -24 4 6 16 11 27 11 11 0 17 5 14 10 -7
12 -65 14 -65 3z"/>
<path d="M1394 1073 c0 -25 4 -33 18 -33 21 0 22 4 7 32 -8 16 -8 22 2 29 10
6 8 8 -7 7 -16 -2 -20 -9 -20 -35z"/>
<path d="M1510 1069 c0 -11 5 -17 10 -14 6 3 10 13 10 21 0 8 -4 14 -10 14 -5
0 -10 -9 -10 -21z"/>
<path d="M1680 1014 c0 -8 5 -12 10 -9 6 4 8 11 5 16 -9 14 -15 11 -15 -7z"/>
<path d="M1962 1010 c-35 -33 -47 -94 -45 -230 2 -69 5 -144 8 -167 5 -33 3
-43 -8 -43 -29 0 -41 33 -51 148 l-11 117 -33 3 c-27 3 -34 -1 -43 -25 -15
-40 -5 -203 16 -243 21 -40 78 -66 112 -51 l23 11 0 -175 c0 -95 3 -176 8
-179 4 -2 31 7 60 20 55 25 55 26 52 104 l-1 45 51 -3 c69 -5 94 13 113 80 23
82 28 176 14 233 -12 46 -16 50 -43 50 -35 0 -41 -20 -43 -148 -1 -100 -17
-143 -57 -153 -14 -4 -28 -4 -31 -1 -3 4 -2 75 3 159 8 142 10 153 29 156 52
8 63 14 74 40 17 42 10 132 -11 146 -26 16 -36 -1 -39 -64 -2 -58 -13 -90 -30
-90 -7 0 -9 38 -4 118 l7 119 -27 21 c-35 27 -65 28 -93 2z"/>
<path d="M1702 954 c-14 -16 -5 -18 17 -5 7 5 9 11 5 14 -5 3 -15 -1 -22 -9z"/>
<path d="M1503 942 c10 -11 19 -29 20 -41 2 -25 13 -27 34 -5 15 14 14 17 -3
34 -10 10 -30 21 -44 25 -24 8 -25 7 -7 -13z"/>
<path d="M1451 891 c-8 -6 -9 -11 -3 -15 6 -3 14 -1 17 5 9 14 2 20 -14 10z"/>
<path d="M1486 891 c-3 -5 1 -11 9 -15 8 -3 15 -1 15 4 0 13 -18 22 -24 11z"/>
<path d="M1445 801 c-3 -5 -1 -12 5 -16 5 -3 10 1 10 9 0 18 -6 21 -15 7z"/>
<path d="M1477 784 c-8 -8 1 -24 13 -24 4 0 10 7 14 15 5 15 -14 21 -27 9z"/>
<path d="M1520 770 c-8 -5 -12 -11 -9 -14 2 -3 11 -1 19 4 8 5 12 11 9 14 -2
3 -11 1 -19 -4z"/>
<path d="M1510 730 c0 -5 7 -10 16 -10 8 0 12 5 9 10 -3 6 -10 10 -16 10 -5 0
-9 -4 -9 -10z"/>
<path d="M1440 700 c0 -5 5 -10 11 -10 5 0 7 5 4 10 -3 6 -8 10 -11 10 -2 0
-4 -4 -4 -10z"/>
<path d="M1466 674 c-4 -9 -4 -19 -1 -22 6 -6 35 18 35 29 0 16 -28 10 -34 -7z"/>
<path d="M1511 667 c-6 -8 -8 -17 -4 -20 11 -12 21 -7 26 13 6 23 -5 26 -22 7z"/>
<path d="M1430 540 c-9 -6 -10 -10 -3 -10 6 0 15 5 18 10 8 12 4 12 -15 0z"/>
<path d="M1440 500 c0 -5 5 -10 11 -10 5 0 7 5 4 10 -3 6 -8 10 -11 10 -2 0
-4 -4 -4 -10z"/>
<path d="M740 419 c0 -5 5 -7 10 -4 6 3 10 8 10 11 0 2 -4 4 -10 4 -5 0 -10
-5 -10 -11z"/>
<path d="M1030 410 c0 -5 5 -10 11 -10 5 0 7 5 4 10 -3 6 -8 10 -11 10 -2 0
-4 -4 -4 -10z"/>
<path d="M1420 380 c0 -5 5 -10 10 -10 6 0 10 5 10 10 0 6 -4 10 -10 10 -5 0
-10 -4 -10 -10z"/>
<path d="M1157 283 c-13 -12 -7 -24 11 -21 9 2 22 -5 29 -17 l12 -20 1 21 c0
32 -34 57 -53 37z"/>
</g>
</svg>
